<?xml version="1.0" encoding="utf-8"?>
<!-- Generator: Adobe Illustrator 22.0.1, SVG Export Plug-In . SVG Version: 6.00 Build 0)  -->
<svg version="1.1" id="图层_1" xmlns="http://www.w3.org/2000/svg" xmlns:xlink="http://www.w3.org/1999/xlink" x="0px" y="0px"
	 viewBox="0 0 120 120" style="enable-background:new 0 0 120 120;" xml:space="preserve">
<style type="text/css">
	.st0{fill:#7FCFFF;}
	.st1{fill:none;}
	.st2{clip-path:url(#SVGID_2_);}
	.st3{fill:#F3EAC7;}
	.st4{fill:#F6C1A9;}
	.st5{fill:#F8E1CC;}
	.st6{fill:#424242;}
	.st7{fill:#D89E84;}
	.st8{fill:#964B4B;}
	.st9{fill:#514D49;}
	.st10{fill:#1D2C30;}
	.st11{fill:url(#SVGID_3_);}
	.st12{fill:url(#SVGID_4_);}
	.st13{fill:#F2F2F2;}
	.st14{fill:#A5A4A4;}
	.st15{fill:#515151;}
	.st16{fill:#2E2E2E;}
</style>
<path class="st0" d="M120,60c0,33.1-26.9,60-60,60C26.9,120,0,93.1,0,60C0,26.9,26.9,0,60,0C93.1,0,120,26.9,120,60"/>
<path class="st1" d="M119.9,60c0,33.1-26.8,59.9-59.9,59.9C26.9,119.9,0.1,93.1,0.1,60C0.1,26.9,26.9,0.1,60,0.1
	C93.1,0.1,119.9,26.9,119.9,60"/>
<path class="st1" d="M119.9,60c0,33.1-26.8,59.9-59.9,59.9C26.9,119.9,0.1,93.1,0.1,60C0.1,26.9,26.9,0.1,60,0.1
	C93.1,0.1,119.9,26.9,119.9,60"/>
<g>
	<defs>
		<path id="SVGID_1_" d="M120,60c0,33.1-26.9,60-60,60C26.9,120,0,93.1,0,60C0,26.9,26.9,0,60,0C93.1,0,120,26.9,120,60"/>
	</defs>
	<clipPath id="SVGID_2_">
		<use xlink:href="#SVGID_1_"  style="overflow:visible;"/>
	</clipPath>
	<g class="st2">
		<line class="st3" x1="58.1" y1="65.1" x2="58.1" y2="65.1"/>
		<rect x="45.4" y="80.6" class="st4" width="29.4" height="27"/>
		<g>
			<path class="st4" d="M35.8,60.3c0,0-1.9-1.7-3.4-1c-1.5,0.7-2.2,3.8-1.5,6c0.6,2.2,3.5,8,4.9,8.7c1.4,0.7,3.8,0.5,3.8,0.5
				L35.8,60.3z"/>
			<path class="st4" d="M84.3,60.3c0,0,1.9-1.7,3.4-1c1.5,0.7,2.2,3.8,1.5,6c-0.6,2.2-3.5,8-4.9,8.7c-1.4,0.7-3.8,0.5-3.8,0.5
				L84.3,60.3z"/>
		</g>
		<path class="st5" d="M85.4,44.7C84,30.3,69.3,25.4,60.1,25.4s-23.9,4.9-25.3,19.4c-1.4,14.5,5.6,37,7.2,39c1.6,2,11,6.7,12.6,7
			c1.5,0.3,4.3,0.4,5.5,0.4s4-0.1,5.5-0.4c1.5-0.3,10.9-5.1,12.6-7C79.8,81.8,86.8,59.2,85.4,44.7z"/>
		<path class="st6" d="M65.4,57.4c-0.6-0.1-0.2-1.2,0.9-2c0.6-0.4,1.6-0.5,2.5-0.7c1.9-0.4,5-0.3,7.4,0.1c2.1,0.4,2.6,1,2.9,1.6
			c0.4,0.9-1.8,0.2-6.1,0.3C70.7,56.8,66.8,57.6,65.4,57.4z"/>
		<path class="st6" d="M55.4,57.4c0.6-0.1,0.2-1.2-0.9-2c-0.6-0.4-1.6-0.5-2.5-0.7c-1.9-0.4-5-0.3-7.4,0.1c-2.1,0.4-2.6,1-2.9,1.6
			c-0.4,0.9,1.8,0.2,6.1,0.3C50.1,56.8,53.9,57.6,55.4,57.4z"/>
		<path class="st7" d="M60.1,74.6c0,0-1.4-0.1-2.2-0.6c0,0,0.4,1.7,2.2,1.9c1.8-0.2,2.2-1.9,2.2-1.9C61.4,74.5,60.1,74.6,60.1,74.6z
			"/>
		<path class="st8" d="M52.9,79.7c0.8,2.7,3.7,4.2,7.2,4.2s6.4-1.5,7.2-4.2c0,0-4.8,1.9-7.1,2C57.8,81.8,52.7,79.9,52.9,79.7z"/>
		<path class="st9" d="M84.7,32.3c-1.2-3.2-8-10.3-24.6-10.3s-23.4,7.1-24.6,10.3c-1.2,3.2-3.4,9.5-2.7,16.3
			c0.7,6.9,3.1,13.1,3.1,13.1l1.5,1.8l0.9-9.6l3.1-3.6l2.9-9.4c3.2,0.9,15.9,3.1,15.9,3.1s12.7-2.2,15.9-3.1l2.9,9.4L82,54l0.9,9.6
			l1.5-1.8c0,0,2.4-6.2,3.1-13.1C88.2,41.8,85.9,35.5,84.7,32.3z"/>
		<path class="st9" d="M34.5,38.4c0,0,1.3-9.1,11-17.3c0,0,0.4,1.7,0.4,2.9c0,0,7.1-5,17.2-6.8c0,0,0.2,1.9-0.3,3.8
			c0,0,9.4-2.5,15.2-2.5c0,0,0.5,2.2,0.4,4.3l3.1-0.9c0,0,3.7,9.1,5,17.8L34.5,38.4z"/>
		<g>
			<path class="st10" d="M52.5,63.2c0,1.9-1.6,3.5-3.5,3.5c-1.9,0-3.5-1.6-3.5-3.5c0-1.9,1.6-3.5,3.5-3.5
				C50.9,59.7,52.5,61.2,52.5,63.2z"/>
			<linearGradient id="SVGID_3_" gradientUnits="userSpaceOnUse" x1="49.4888" y1="62.1319" x2="51.9415" y2="62.1319">
				<stop  offset="0" style="stop-color:#DBDBDB"/>
				<stop  offset="0.294" style="stop-color:#D8D8D8"/>
				<stop  offset="0.5359" style="stop-color:#CECECE"/>
				<stop  offset="0.7593" style="stop-color:#BDBDBD"/>
				<stop  offset="0.9704" style="stop-color:#A5A5A5"/>
				<stop  offset="1" style="stop-color:#A1A1A1"/>
			</linearGradient>
			<path class="st11" d="M51.9,62.1c0,0.7-0.5,1.2-1.2,1.2c-0.7,0-1.2-0.5-1.2-1.2s0.5-1.2,1.2-1.2C51.4,60.9,51.9,61.5,51.9,62.1z"
				/>
		</g>
		<g>
			<path class="st10" d="M68.1,63.2c0,1.9,1.6,3.5,3.5,3.5s3.5-1.6,3.5-3.5c0-1.9-1.6-3.5-3.5-3.5S68.1,61.2,68.1,63.2z"/>
			<linearGradient id="SVGID_4_" gradientUnits="userSpaceOnUse" x1="72.2175" y1="62.1319" x2="74.67" y2="62.1319">
				<stop  offset="0" style="stop-color:#DBDBDB"/>
				<stop  offset="0.294" style="stop-color:#D8D8D8"/>
				<stop  offset="0.5359" style="stop-color:#CECECE"/>
				<stop  offset="0.7593" style="stop-color:#BDBDBD"/>
				<stop  offset="0.9704" style="stop-color:#A5A5A5"/>
				<stop  offset="1" style="stop-color:#A1A1A1"/>
			</linearGradient>
			<path class="st12" d="M74.7,62.1c0,0.7-0.5,1.2-1.2,1.2c-0.7,0-1.2-0.5-1.2-1.2s0.5-1.2,1.2-1.2C74.1,60.9,74.7,61.5,74.7,62.1z"
				/>
		</g>
		<path class="st13" d="M100.1,109.2L73.9,91.9c-3,4.8-6.1,9.9-13.9,9.9c-7.8,0-10.9-4.6-13.9-9.4l-25,16.9L9.9,139.9
			c0,0,26.1,8,50.2,8.9c24.1-0.9,50.2-8.9,50.2-8.9L100.1,109.2z"/>
		<path class="st14" d="M59.9,104.8c10,0,13.9-6.3,17.7-12.4l-3.1-1.8C71.4,95.6,68.2,101,60,101c-8.2,0-11.4-4.8-14.7-9.8L42.1,93
			C46,99,50,104.8,59.9,104.8z"/>
		<path class="st15" d="M45.3,91.9c0,0,1.6,21.9,1.5,36.3c-0.1,14.4,0,19.7,0,19.7s-9.7-0.6-26.6-4.9l-2.3-34.6
			C17.9,108.3,39.4,95.1,45.3,91.9z"/>
		<path class="st15" d="M74.7,91.9c0,0-1.6,21.9-1.5,36.3c0.1,14.4,0,19.7,0,19.7s9.7-0.6,26.6-4.9l2.3-34.6
			C102,108.3,80.5,95.1,74.7,91.9z"/>
		<path class="st16" d="M111,139.9l-9-31.6c-3.7,11.9-5.9,31.1-6.3,35.6C104.8,141.8,111,139.9,111,139.9z"/>
		<path class="st16" d="M9,139.9l9-31.6c3.7,11.9,5.9,31.1,6.3,35.6C15.2,141.8,9,139.9,9,139.9z"/>
		<path class="st16" d="M73.4,115l11-6l-4.3-14.5l-5.5-4.5C74.7,89.9,73.7,103.3,73.4,115z"/>
		<path class="st16" d="M46.6,115l-11-6l4.3-14.5l5.5-4.5C45.4,89.9,46.4,103.3,46.6,115z"/>
	</g>
</g>
</svg>
